# xmcd
#
# Track frame offsets: 
#        182
#        19420
#        34202
#        45147
#        61802
#        75655
#        86310
#        102392
#        118982
#        134442
#        145567
#        165562
#        176042
#        186560
#        199302
#        212762
#        228982
#        241912
#        252565
#        260802
#
# Disc length: 3637 seconds
#
# Revision: 2
# Processed by: cddbd v1.5.1PL0 Copyright (c) Steve Scherf et al.
# Submitted via: ExactAudioCopy v0.95a5
#
DISCID=200e3314
DTITLE=Various Artist - All The Best From Greece
DYEAR=1994
DGENRE=Greek
TTITLE0=Zorba's Dance
TTITLE1=Oniro Demeno
TTITLE2=Doxa To Theo
TTITLE3=O Kiamos
TTITLE4=Aponi Zoi
TTITLE5=To Pallikari Kaimo
TTITLE6=Vraho Vraho
TTITLE7='sto Perigiali To Krifo
TTITLE8=Deka Pallikaria
TTITLE9=Who Pays The Ferryman
TTITLE10=Play Bouzouki
TTITLE11=Fragosyriani
TTITLE12=Otan Simanoun
TTITLE13=Varka Sto Yalo
TTITLE14=Matia Vourkomena
TTITLE15=I Margarita I Margaro
TTITLE16=Kalimepa Ilie
TTITLE17=Emaste Dio
TTITLE18=S' Afti Ti Gitonia
TTITLE19=Baxe Tsifliki
EXTD=
EXTT0=
EXTT1=
EXTT2=
EXTT3=
EXTT4=
EXTT5=
EXTT6=
EXTT7=
EXTT8=
EXTT9=
EXTT10=
EXTT11=
EXTT12=
EXTT13=
EXTT14=
EXTT15=
EXTT16=
EXTT17=
EXTT18=
EXTT19=
PLAYORDER=
